<svg width="3671" height="1728" xmlns="http://www.w3.org/2000/svg" xmlns:xlink="http://www.w3.org/1999/xlink" xml:space="preserve" overflow="hidden"><defs><clipPath id="clip0"><rect x="364" y="373" width="3671" height="1728"/></clipPath><linearGradient x1="1135" y1="887.5" x2="3268" y2="887.5" gradientUnits="userSpaceOnUse" spreadMethod="reflect" id="fill1"><stop offset="0" stop-color="#D7BE69"/><stop offset="0.0188679" stop-color="#D6BD68"/><stop offset="0.0377358" stop-color="#D6BD68"/><stop offset="0.0566038" stop-color="#D6BD68"/><stop offset="0.0754717" stop-color="#D6BD68"/><stop offset="0.0943396" stop-color="#D6BD68"/><stop offset="0.113208" stop-color="#D6BD68"/><stop offset="0.132075" stop-color="#D6BC68"/><stop offset="0.150943" stop-color="#D5BC67"/><stop offset="0.169811" stop-color="#D5BC67"/><stop offset="0.188679" stop-color="#D5BB67"/><stop offset="0.207547" stop-color="#D4BB67"/><stop offset="0.226415" stop-color="#D4BA66"/><stop offset="0.245283" stop-color="#D3BA66"/><stop offset="0.264151" stop-color="#D3B966"/><stop offset="0.283019" stop-color="#D2B865"/><stop offset="0.301887" stop-color="#D2B865"/><stop offset="0.320755" stop-color="#D1B764"/><stop offset="0.339623" stop-color="#D1B664"/><stop offset="0.358491" stop-color="#D0B663"/><stop offset="0.377358" stop-color="#CFB563"/><stop offset="0.396226" stop-color="#CFB462"/><stop offset="0.415094" stop-color="#CEB362"/><stop offset="0.433962" stop-color="#CDB261"/><stop offset="0.45283" stop-color="#CDB161"/><stop offset="0.471698" stop-color="#CCB060"/><stop offset="0.490566" stop-color="#CBAF5F"/><stop offset="0.509434" stop-color="#CAAE5F"/><stop offset="0.528302" stop-color="#C9AD5E"/><stop offset="0.54717" stop-color="#C8AC5D"/><stop offset="0.566038" stop-color="#C7AB5C"/><stop offset="0.584906" stop-color="#C6AA5C"/><stop offset="0.603774" stop-color="#C5A95B"/><stop offset="0.622642" stop-color="#C4A75A"/><stop offset="0.641509" stop-color="#C3A659"/><stop offset="0.660377" stop-color="#C2A558"/><stop offset="0.679245" stop-color="#C1A358"/><stop offset="0.698113" stop-color="#C0A257"/><stop offset="0.716981" stop-color="#BFA156"/><stop offset="0.735849" stop-color="#BE9F55"/><stop offset="0.754717" stop-color="#BD9E54"/><stop offset="0.773585" stop-color="#BB9C53"/><stop offset="0.792453" stop-color="#BA9B52"/><stop offset="0.811321" stop-color="#B99951"/><stop offset="0.830189" stop-color="#B79750"/><stop offset="0.849057" stop-color="#B6964F"/><stop offset="0.867925" stop-color="#B5944E"/><stop offset="0.886792" stop-color="#B3924D"/><stop offset="0.90566" stop-color="#B2914B"/><stop offset="0.924528" stop-color="#B18F4A"/><stop offset="0.943396" stop-color="#AF8D49"/><stop offset="0.962264" stop-color="#AE8B48"/><stop offset="0.981132" stop-color="#AC8947"/><stop offset="1" stop-color="#AB8846"/></linearGradient></defs><g clip-path="url(#clip0)" transform="translate(-364 -373)"><path d="M2191.23 1321.84C2180.58 1337.78 2178.23 1343.39 2184.87 1346.31L2194.28 1348.57 2194.33 1348.83 2194.57 1348.79 2195.77 1354.1C2196.51 1355.63 2197.88 1356.61 2200.79 1356.16 2203.09 1355.78 2204.43 1353.24 2203.85 1351.04 2203.01 1347.84 2201.43 1347.44 2199.67 1347.77L2194.57 1348.79 2194.53 1348.63 2194.28 1348.57 2192.17 1336.07C2192 1331.58 2192.04 1326.85 2191.23 1321.84ZM2220.53 1297.81C2223.79 1306.68 2227.78 1314.69 2238.99 1315.65 2233.8 1308.74 2229.26 1300.97 2220.53 1297.81ZM2237.27 1224.77C2217.95 1240.62 2215.64 1249.84 2224.51 1267.79 2231.7 1282.3 2244.11 1291.48 2257.9 1298.53 2268.04 1303.72 2277.02 1300.69 2283.52 1292.03 2250.75 1286.22 2222.9 1257.02 2237.27 1224.77ZM2285.27 1222.12 2285.31 1222.15 2285.3 1222.16ZM2130.5 1209.19C2123.38 1208.32 2122.11 1211.72 2119.3 1223.94 2116.62 1235.5 2115.31 1236.29 2104.62 1232.4 2103.04 1231.82 2101.7 1230.44 2100.08 1230.03 2093.51 1228.28 2082.61 1235.36 2082.41 1242.38 2082.17 1251.11 2089.42 1247.12 2093.75 1247.88 2099.81 1248.87 2105.34 1250.73 2104.89 1258.3 2104.24 1269.51 2111.39 1274.63 2119.99 1278.89 2121.5 1279.65 2122.64 1280.96 2122.5 1282.92 2121.29 1286.84 2117.14 1286.64 2113.95 1288.7L2111.27 1291.7 2111.25 1291.69 2111.22 1291.75 2111.27 1291.7 2117.59 1297.46C2124.29 1301.62 2131.95 1301.26 2139.76 1299.35 2150.01 1296.84 2158.15 1290.52 2165.86 1283.43 2186.69 1264.28 2186.04 1241.62 2164.17 1223.6 2156.92 1217.62 2148.84 1213.77 2139.86 1211.32 2135.91 1210.25 2132.88 1209.48 2130.5 1209.19ZM2319.64 1208.07C2318.05 1208.02 2316.78 1208.38 2315.63 1209.91 2318.48 1211.02 2321.13 1211.39 2325.64 1208.78 2323.16 1208.61 2321.23 1208.13 2319.64 1208.07ZM2304.66 1207.99C2293.14 1209.71 2283.1 1211.46 2273.54 1213.7 2249.06 1219.41 2244.32 1227.42 2247.1 1252.07 2249.24 1270.78 2262.27 1281.03 2281.14 1278.55 2288.33 1277.62 2294.59 1275.25 2294.28 1266.03 2293.9 1255.75 2299.57 1251.8 2309.23 1251.97 2311.99 1252.04 2315.05 1252.18 2316.32 1248.81 2316.16 1233.77 2304.21 1232.53 2294.17 1228.16L2285.31 1222.15 2294.7 1215.06C2298.13 1213.21 2301.65 1211.36 2304.66 1207.99ZM2087.91 1204.45C2085.95 1204.63 2083.58 1205.24 2081.75 1206.37 2083.85 1206.75 2085.64 1207.65 2086.95 1207.16 2088.63 1206.54 2092.83 1209.36 2091.59 1205.1 2091.42 1204.52 2089.87 1204.27 2087.91 1204.45ZM2909.81 1159.2C2871.06 1184.23 2839.74 1215.49 2802.81 1238.9 2832.86 1229.07 2896.54 1180.76 2909.81 1159.2ZM1501.16 1153.73C1500.13 1155 1499.06 1156.24 1498.03 1157.51 1527.29 1202.59 1573.84 1226.11 1618.3 1251.69 1599.94 1232.82 1575.73 1222.6 1556.82 1204.93 1538.39 1187.74 1519.72 1170.78 1501.16 1153.73ZM1772.75 1149.43C1781.18 1150.55 1789.12 1154.3 1793.62 1160.36 1798.99 1167.59 1805.35 1174.67 1800.6 1185.16 1798.09 1190.69 1801.98 1194.92 1805.72 1198.67 1822.26 1215.18 1843.17 1219.58 1865.41 1219.68 1870.36 1219.68 1874.25 1216.93 1872.5 1210.67 1872.05 1209.02 1871.57 1207.34 1871.36 1205.65 1869.75 1190.66 1872.77 1184.43 1884.32 1178.86 1899.59 1171.51 1915.72 1172.54 1924.48 1181.48 1934.11 1191.31 1933.8 1195.61 1921.8 1208.78L1921.77 1208.81C1929.61 1213.59 1936.35 1217.72 1943.09 1221.81 1942.09 1227.69 1937.48 1227.55 1933.94 1228.31 1904.89 1234.6 1875.69 1240.42 1845.75 1238.56 1832.65 1237.73 1819.34 1237.15 1806.65 1234.19 1780.87 1228.17 1758.86 1215.38 1744.35 1192.41 1734.86 1177.42 1737.03 1162.43 1748.85 1154.31 1755.37 1149.84 1764.31 1148.32 1772.75 1149.43ZM2634.2 1148.95C2641.69 1149.36 2649.17 1151.54 2653.58 1155.14 2662.25 1162.22 2664.11 1170.96 2658.88 1182.96 2647.22 1209.61 2625.63 1224.7 2598.57 1232.27 2564.26 1241.89 2529.49 1240.24 2494.77 1234.12 2483.52 1232.13 2472.21 1230.44 2460.93 1228.66 2456.98 1228.04 2452.85 1227.8 2450.34 1222.53 2459.01 1215.76 2462.28 1207.82 2460.9 1195.27 2459.83 1185.4 2471.46 1177.7 2481.56 1175.05 2490.99 1172.57 2499.72 1172.67 2503.29 1160.36 2505.32 1153.42 2518.11 1154.45 2523.58 1161.91 2536.47 1179.52 2541.46 1194.1 2522.27 1213.7 2520.73 1215.28 2518.46 1216.17 2517.77 1220.88L2517.74 1220.95C2537.47 1222.95 2556.14 1221.19 2574.47 1216.48 2579.35 1215.24 2584.03 1212.53 2588.32 1209.74 2605.62 1198.53 2606.41 1191.52 2591.66 1175.01 2599.29 1167.83 2606.51 1159.99 2614.8 1153.42 2619.24 1149.91 2626.72 1148.54 2634.2 1148.95ZM2947.15 1130.72C2943.37 1131.31 2940.58 1132.55 2941.75 1137.15 2944.3 1135.64 2947.84 1135.02 2947.15 1130.72ZM2999.81 1034.16C2994.97 1033.79 2990.28 1034.58 2985.42 1036.13 2967.13 1041.94 2953.48 1053.39 2942.75 1068.9 2925.87 1093.35 2910.22 1118.69 2891.04 1141.52 2887.87 1145.3 2883.2 1148.47 2882.89 1154.31 2926.18 1115.35 2966.3 1073.2 3015.16 1039.15 3009.66 1036.06 3004.66 1034.53 2999.81 1034.16ZM1449.41 1030.11 1449.43 1030.12 1445.87 1033C1459.35 1049.02 1472.86 1065.08 1488.3 1083.44 1486.7 1069.26 1480.8 1059.57 1473.39 1051.61L1449.43 1030.12 1449.44 1030.11ZM3157.18 1019.3C3138.39 1017.63 3119.22 1020.17 3099.78 1026.15 3057.05 1039.28 3021.88 1063.9 2989.62 1092.94L2958.21 1123.14 2958.12 1123.16 2958.15 1123.19 2958.21 1123.14 2961.18 1122.4C2967.19 1118 2973.18 1113.6 2979.02 1108.99 3014.78 1080.66 3054.43 1061.26 3100.43 1057.31 3118.38 1055.76 3137.74 1056.72 3150.29 1070.41 3159.64 1080.59 3166.55 1080.21 3178.62 1078.35 3200.07 1075.05 3217.23 1084.89 3215.44 1108.92 3215.24 1111.64 3214 1114.56 3216.65 1116.87 3237.76 1111.54 3248.07 1094.58 3241.37 1074.64 3236.14 1059.1 3226.86 1046.58 3212.28 1037.74 3194.37 1026.86 3175.96 1020.97 3157.18 1019.3ZM1266.4 1018.78C1259.24 1018.3 1252.03 1018.38 1244.75 1019.08 1235.05 1020.01 1225.24 1022.05 1215.29 1025.33 1190.81 1033.41 1171.52 1047.51 1162.07 1072.47 1154.71 1091.9 1165.37 1111.6 1184.66 1114.84 1186.27 1083.99 1193.73 1081.17 1214.61 1077.6 1220.38 1076.6 1225.92 1079.04 1231.35 1080.79 1236.03 1082.31 1239.84 1082.86 1243.49 1078.25 1260.37 1057.14 1283.96 1056.79 1307.61 1059.27 1336.56 1062.33 1362.9 1073.02 1386.87 1089.7L1445.74 1129.48 1445.77 1129.55 1445.8 1129.52 1445.74 1129.48 1442.8 1121.74C1441.56 1120.04 1440.19 1118.96 1439.06 1117.73 1407.7 1083.82 1371.94 1056.07 1329.82 1036.4 1308.94 1026.65 1287.9 1020.21 1266.4 1018.78ZM2944.36 1017.59C2933.77 1042.49 2914.86 1058.62 2914.28 1084.68 2925.01 1069.45 2935.67 1054.18 2946.46 1039.02 2950.86 1032.83 2947.77 1027.53 2944.36 1017.59ZM1536.78 943.25C1497.44 964.913 1485.51 1031.93 1509.41 1088.98L1509.44 1088.98C1508.72 1063.88 1504.77 1039.22 1509.96 1013.98 1514.98 989.637 1526.74 968.111 1536.78 943.25ZM2864.04 941.943C2892.41 989.087 2907.23 1038.57 2893.51 1093.79L2893.55 1093.83C2902.42 1081.86 2902.76 1067.83 2904.51 1054.7 2908.47 1025.36 2905 996.445 2892.69 969.314 2887.15 957.142 2878.83 946.31 2864.04 941.943ZM1699.54 941.423C1697.98 941.565 1696.69 942.287 1695.53 942.837 1673.76 953.291 1653.75 966.529 1634.94 981.59 1627.17 987.78 1622.7 996.307 1619.3 1005.76 1613.25 1022.61 1609.29 1039.98 1607.54 1057.58 1603.69 1096.47 1617.3 1130.1 1641.92 1159.57L1641.92 1159.54C1622.25 1120.27 1616.58 1078.97 1627.17 1037.33 1637.93 995.035 1669.81 967.354 1705.19 943.49 1702.94 941.719 1701.1 941.281 1699.54 941.423ZM2770.97 938.608C2781.39 953.531 2793.35 966.598 2801.23 982.69 2828.39 1038.36 2829.28 1093.83 2800.71 1149.15 2777.36 1194.3 2737.69 1220.4 2692.92 1240.31 2654.79 1257.26 2614.21 1264.52 2573.2 1268.65 2550.54 1270.92 2527.23 1272.12 2504.7 1267.55 2473.31 1261.12 2442.71 1251.59 2413.04 1239.14 2409.39 1237.61 2405.84 1235.68 2402.14 1234.19L2390.92 1232 2390.52 1231.72 2389.99 1231.6 2380.92 1225.47C2377.24 1223.85 2372.9 1222.71 2367.48 1221.92 2371.88 1225.3 2375.72 1227.73 2379.42 1229.32L2389.99 1231.6 2390.41 1231.89 2390.34 1231.89 2390.92 1232 2400.06 1238.39C2410.15 1243.96 2421.59 1246.84 2431.67 1252.38 2485.97 1282.26 2546.48 1290.1 2606.14 1299.42 2628.79 1302.96 2652.62 1302.45 2676.1 1301 2719.43 1298.39 2761 1289.31 2800.99 1272.74 2825.71 1262.49 2848.98 1249.8 2871.37 1228.69 2860.12 1231.58 2853.32 1235.5 2846.68 1239.59 2825.6 1252.55 2803.6 1263.32 2779.29 1268.96 2760.93 1273.22 2742.47 1277.17 2724.31 1282.13 2692.64 1290.79 2660.46 1295.4 2627.76 1293.13 2609.61 1291.86 2591.66 1287.77 2573.71 1284.36 2567.52 1283.19 2560.34 1285.15 2552.81 1278.96 2564.32 1275.39 2573.92 1276.45 2583.3 1276.38 2617.17 1276.21 2650.42 1273.15 2683.29 1263.59 2741.88 1246.54 2789.23 1214.28 2820.38 1161.77 2848.68 1114.08 2858.34 1062.81 2838.22 1008.76 2836.64 1004.49 2835.75 999.953 2834.41 995.585 2824.4 963.366 2806.83 947.238 2770.97 938.608ZM1632.02 937.542C1612.25 937.266 1582.58 958.001 1575.84 975.813 1571.4 987.539 1567.34 999.437 1563.6 1011.4 1548.09 1060.82 1552.32 1108.61 1576.46 1154.42 1591.72 1183.33 1615.24 1205.03 1640.58 1224.91 1650.93 1233.02 1661.73 1240.42 1673.52 1246.5 1723.58 1272.46 1777.56 1274.73 1832.23 1274.46 1844.13 1274.39 1856.51 1270.74 1869.47 1275.15 1866.72 1279.75 1863.83 1279.79 1861.15 1280.27 1844.82 1283.12 1828.56 1286.53 1812.12 1288.69 1774.95 1293.54 1737.78 1291 1701.03 1285.15 1684.21 1282.47 1667.78 1277.45 1650.55 1275.83 1639.96 1274.84 1629.23 1272.81 1618.71 1269.47 1596.71 1262.46 1576.87 1251.04 1556.24 1241.27 1551.77 1239.14 1547.2 1234.71 1541.97 1238.21 1535.61 1242.48 1529.63 1239.49 1523.85 1238.01 1518.5 1236.65 1513.17 1235.82 1507.78 1235.63L1491.77 1237 1491.36 1236.94 1491.29 1237.05 1491.77 1237 1516.6 1240.8C1524.85 1242.85 1532.94 1245.56 1540.94 1248.6 1566.04 1258.16 1591.1 1267.89 1616 1277.97 1647.05 1290.55 1679.61 1298.18 1712.65 1299.77 1757.52 1301.9 1802.42 1303 1846.92 1289.93 1876.9 1281.13 1907.88 1276.21 1937.45 1264.73 1967.4 1253.1 1996.35 1239.56 2025.67 1226.66 2029.25 1225.08 2033.41 1223.7 2035.06 1219.3 2009.82 1228.96 1985.07 1239.25 1960.38 1249.63 1905.54 1272.7 1848.77 1272.22 1791.63 1264.62 1771.41 1261.94 1751.54 1255.17 1732.11 1248.5 1678.78 1230.17 1632.43 1202.21 1604.89 1150.32 1570.75 1085.95 1571.85 1023.37 1614.72 962.987 1620.47 954.906 1625.86 946.585 1632.02 937.542ZM2044.9 856.308C2041.44 857.757 2039.5 862.717 2036.4 872.242 2035.89 873.858 2035.41 875.509 2034.86 877.125 2032.14 884.69 2035.51 887.888 2042.8 887.922 2063.19 887.991 2083.58 887.922 2103.97 887.922L2103.97 887.957C2104.38 886.822 2104.79 885.687 2105.2 884.552 2092.1 874.855 2076.97 868.666 2062.47 861.445 2053.32 856.923 2048.35 854.86 2044.9 856.308ZM2105.34 681.261C2094.3 696.425 2092.48 710.317 2088.01 723.075 2076.49 755.913 2065.83 789.027 2054.21 821.832 2050.98 830.979 2051.74 835.93 2061.4 840.538 2088.15 853.364 2115.69 864.574 2141.13 880.013 2147.43 883.865 2154.48 885.721 2163.86 884.381 2146.43 816.674 2126.21 750.962 2105.34 681.261ZM2364.1 605.985C2351.34 605.663 2338.53 606.402 2325.74 606.196 2317.42 606.058 2312.98 610.391 2312.29 618.506 2311.88 623.63 2311.78 628.788 2311.78 633.946 2311.74 672.837 2311.78 711.727 2311.78 750.618L2311.71 750.618C2311.71 790.093 2311.64 829.534 2311.71 869.01 2311.74 887.441 2311.85 887.509 2329.25 887.75 2338.98 887.888 2348.78 888.507 2358.4 887.578 2381.2 885.412 2404.03 882.008 2423.94 869.835 2458.8 848.55 2477.3 816.468 2483.66 776.476 2490.78 731.74 2485 689.995 2458.05 652.445 2443.91 632.742 2425.04 620.225 2402.17 612.145 2389.57 607.692 2376.86 606.308 2364.1 605.985ZM2131.92 578.928C2138.8 579.684 2139.07 585.358 2140.52 590.172 2150.83 624.73 2161.11 659.288 2171.5 693.846 2182.05 728.92 2192.26 764.097 2203.37 799 2217.98 844.836 2229.12 891.67 2243.05 937.679 2244.66 942.975 2246.55 948.201 2249.58 953.222 2252.54 941.668 2251.02 929.839 2250.61 918.732 2248.34 859.141 2250.44 799.584 2249.75 740.027 2249.44 712.552 2249.27 685.078 2251.99 657.638 2252.78 649.763 2252.12 641.545 2250.85 633.705 2247.07 610.426 2241.29 605.096 2218.08 601.691 2215.27 601.279 2212.31 601.107 2209.63 600.213 2205.88 598.94 2204.64 595.777 2205.09 591.995 2205.47 588.831 2207.25 586.596 2210.42 586.183 2214.37 585.667 2218.39 585.358 2222.38 585.358 2277.98 585.358 2333.61 583.845 2389.11 585.874 2437.42 587.662 2481.46 603.858 2514.71 640.72 2538.26 666.853 2551.4 697.801 2552.77 734.044 2554.35 774.929 2543.28 810.863 2518.01 842.67 2501.58 863.371 2479.88 876.953 2456.09 887.544 2414.24 906.147 2370.09 910.239 2324.98 908.073 2311.99 907.453 2311.88 907.453 2311.64 920.417 2311.44 931.249 2311.61 942.08 2311.61 952.5 2319.03 955.113 2322.4 950.092 2326.49 947.617 2347.02 935.169 2368.58 927.26 2393.2 929.255 2428.17 932.109 2453.71 959.17 2452.37 992.697 2451.44 1015.5 2431.81 1032.17 2409.39 1029.18 2399.46 1027.84 2391.03 1021.07 2390.48 1012.16 2389.83 1001.74 2391.31 991.218 2400.21 984.101 2405.71 979.699 2421.77 984.101 2428.68 990.909 2432.29 977.808 2428.27 967.354 2415.44 958.62 2401.04 948.786 2385.98 942.39 2366.48 951.502 2372.5 957.83 2379.38 955.801 2383.64 959.411 2387.46 962.644 2393.68 965.566 2391.48 971.309 2389.35 976.914 2383.23 976.329 2377.93 974.988 2370.61 973.131 2363.04 970.862 2358.82 964.363 2353.21 955.697 2347.33 957.348 2339.84 961.199 2331 965.738 2324.36 972.994 2316.56 978.736 2311.85 982.209 2311.54 987.402 2311.57 992.697 2311.57 1030.52 2311.81 1068.35 2311.44 1106.17 2311.3 1119.27 2318.86 1125.87 2329.31 1130.76 2338.36 1134.99 2348.09 1135.57 2357.85 1135.88 2362.22 1136.02 2365.86 1137.7 2365.52 1143.03 2365.25 1147.3 2361.98 1148.64 2358.4 1148.98 2354.41 1149.36 2350.39 1149.46 2346.4 1149.46 2304.56 1149.57 2262.75 1149.81 2220.9 1149.53 2214.27 1149.5 2203.09 1153.69 2202.34 1143.38 2201.48 1132.13 2212.93 1136.43 2219.49 1135.5 2225.65 1134.61 2232.28 1135.5 2235.93 1128.66 2224.27 1126.05 2224.69 1126.05 2224.27 1114.25 2223.9 1103.59 2222.59 1092.97 2219.43 1082.82 2212.17 1082.45 2209.14 1087.36 2206.36 1091.14 2189.1 1114.77 2169.43 1136.26 2150.14 1158.16 2147.91 1160.71 2146.19 1163.8 2144.57 1166.79 2136.08 1182.61 2137.49 1187.12 2154.96 1192.86 2166.44 1196.64 2173.08 1206.68 2183.08 1212.08 2185.52 1213.39 2187.28 1216.9 2190.27 1215.97 2193.26 1215.07 2192.64 1204.76 2199.04 1212.43 2201.96 1215.9 2197.45 1220.13 2199.1 1224.01 2199.28 1224.46 2199.96 1224.7 2201.58 1225.94 2204.61 1215.86 2209.25 1207.3 2217.57 1200.77 2222.21 1197.12 2221.32 1191.52 2216.5 1187.39 2212.03 1183.57 2206.84 1181.44 2201.03 1180.51 2197.11 1179.9 2193.16 1178.93 2189.48 1177.52 2186.04 1176.22 2184.01 1173.33 2184.53 1169.41 2185.04 1165.45 2187.86 1163.42 2191.54 1163.05 2204.85 1161.67 2218.02 1161.16 2228.64 1171.57 2229.47 1172.36 2230.53 1173.05 2231.08 1173.98 2243.84 1196.47 2262.23 1196.74 2284.82 1190.52 2311.71 1183.13 2338.12 1191.45 2363.7 1199.84 2393.58 1209.64 2422.7 1222.09 2452.92 1230.48 2490.95 1241.07 2529.74 1249.32 2569.83 1245.33 2614.8 1240.9 2658.19 1230.96 2694.74 1202.69 2726.65 1178 2746.45 1145.23 2754.84 1105.42 2761.14 1075.53 2756.87 1047.44 2743.6 1020.34 2738.75 1010.44 2731.39 1002.39 2723.79 994.588 2720.53 991.218 2716.68 988.089 2712.04 988.089 2705.3 988.089 2703.23 983.481 2699.28 979.321 2686.18 965.463 2668.23 959.377 2650.04 957.795 2628.17 955.904 2606.62 960.89 2586.78 970.621 2572.68 977.533 2561.02 987.573 2554.49 1002.63 2552.36 1007.52 2550.78 1015.15 2543.18 1013.02 2535.13 1010.75 2534.1 1003.32 2535.34 996.067 2536.82 987.539 2539.81 979.493 2544.73 972.237 2564.29 943.318 2591.21 927.363 2626.32 925.472 2647.26 924.337 2667.68 924.853 2684.8 939.639 2686.87 941.427 2689.93 942.115 2692.54 943.215 2738.51 962.781 2763.47 999.402 2775.23 1046.24 2784.03 1081.24 2776.3 1114.39 2761.55 1146.3 2756.84 1156.44 2751.37 1166.28 2745.22 1178.24 2760.96 1169.27 2767.01 1155.62 2773.89 1142.72 2786.17 1119.75 2795.17 1095.34 2795.31 1069.24 2795.48 1038.36 2787.3 1009.13 2769.01 983.619 2762.51 974.541 2756.63 965.222 2744.08 961.612 2735.07 959.033 2727.54 951.64 2719.12 946.757 2669.37 917.873 2617.76 911.683 2565.46 938.264 2533.21 954.666 2509.35 980.249 2502.09 1017.04 2497.66 1039.57 2503.74 1060.16 2522.62 1075.43 2535.31 1085.68 2545.28 1086.85 2563.09 1079.08 2557.55 1069.58 2550.06 1061.13 2551.09 1048.64 2552.22 1034.89 2558.93 1025.81 2570.51 1020.62 2599.36 1007.69 2632.68 1031.66 2630.07 1062.95 2627.56 1092.8 2607.68 1111.78 2578.32 1118.76 2530.18 1130.17 2479.98 1085.47 2479.16 1036.71 2478.71 1011.33 2485.62 988.983 2496.59 966.116 2513.85 930.148 2543.04 909.826 2578.39 897.757 2617.07 884.552 2656.92 883.074 2696.53 896.278 2715.68 902.674 2734.11 910.411 2750.24 922.756 2757.18 928.085 2761.58 928.601 2768.8 921.345 2786.61 903.362 2811.71 901.883 2832.96 915.569 2837.78 918.664 2842.18 922.205 2848.68 920.348 2869.55 914.4 2883.78 925.231 2896.23 939.88 2911.67 958.07 2918.27 979.665 2920.16 1003.05 2920.4 1005.83 2920.78 1008.62 2921.05 1011.16 2925.25 1012.54 2926.9 1009.75 2928.75 1007.79 2938.62 997.443 2949.11 989.843 2964.89 994.417 2970.12 995.929 2976.27 994.176 2981.98 994.141 3002.75 994.038 3013.78 1002.22 3019.73 1022.06 3020.87 1025.85 3020.87 1030.07 3025.3 1033.27 3038.33 1028.73 3049.34 1019.24 3062.71 1014.22 3101.53 999.643 3141 991.562 3182.09 1001.67 3208.02 1008.03 3231.19 1019.66 3249.69 1040.22 3273.59 1066.8 3280.08 1128.76 3231.98 1154.66 3206.67 1168.27 3174.15 1164.52 3157.82 1144.89 3149.84 1135.3 3145.37 1124.46 3147.23 1111.57 3149.98 1092.42 3144.92 1085.81 3126.05 1080.73 3105 1075.09 3085.06 1078.83 3065.77 1086.95 3035.45 1099.71 3008.21 1117.52 2983.36 1139.04 2958.7 1160.4 2933.74 1181.44 2909.22 1202.93 2903.83 1207.65 2896.06 1209.26 2891.24 1216.21 2898.43 1218.13 2903.41 1214.42 2908.74 1213.15 2920.88 1210.26 2931.64 1213.73 2941.1 1220.68 2953.3 1229.62 2954.92 1243.89 2946.05 1256.27 2943.06 1260.46 2940.27 1264.86 2936.77 1268.58 2927.79 1277.97 2924.11 1278.1 2917.24 1267.51 2912.77 1260.67 2907.26 1258.92 2899.94 1258.95 2891.83 1259.02 2884.26 1260.77 2876.53 1263.45 2845.58 1274.18 2817.66 1291.62 2786.75 1302.52 2761.17 1311.53 2734.87 1316.79 2708.32 1320.91 2688.62 1323.97 2668.58 1324.97 2648.5 1325.45 2576.74 1327.21 2508.83 1311.04 2443.02 1284.02 2411.15 1270.95 2380.55 1255.48 2351.39 1237.05 2343.82 1232.27 2335.68 1228.41 2326.84 1224.94 2336.54 1237.77 2341.49 1251.93 2342.48 1267.44 2344.82 1303.55 2317.52 1328.58 2281.59 1323.32 2271 1321.77 2260.48 1319.99 2249.75 1318.27 2249.27 1325.18 2253.88 1328.75 2255.12 1333.7 2257.59 1343.44 2256.59 1351.52 2247.72 1358.05 2232.94 1368.95 2219.91 1381.81 2207.91 1395.7 2200.51 1404.27 2200.03 1404.2 2192.92 1394.88 2181.74 1380.2 2167.99 1368.19 2153.99 1356.4 2145.16 1348.97 2144.19 1344.4 2150.07 1334.5 2155.23 1325.76 2163.79 1320.78 2171.63 1315.14 2180.23 1308.95 2187.1 1301.86 2190.17 1287.28 2175.14 1305.41 2159.22 1316.13 2139.07 1319.88 2124.8 1322.53 2110.4 1322.94 2096.33 1320.47 2068.1 1315.51 2051.43 1279.96 2063.08 1250.66 2066.25 1242.75 2070.58 1235.33 2075.12 1226.18 2065.04 1225.84 2058.27 1231.06 2051.36 1235.4 2018.76 1255.82 1984.62 1273.19 1948.9 1287.28 1878.79 1314.96 1806.1 1329.2 1730.63 1324.49 1681.77 1321.46 1634.7 1309.19 1589.42 1290.41 1567.76 1281.44 1546.06 1272.5 1524.57 1263.11 1517.56 1260.05 1510.27 1258.88 1502.94 1257.92 1495.21 1256.89 1488.98 1258.36 1485.34 1267.44 1480.94 1278.41 1471.24 1278.76 1465.23 1268.44 1461.24 1261.56 1458.45 1254.44 1451.54 1249.36 1446.38 1245.57 1447.76 1239.01 1449.58 1233.37 1453.95 1219.96 1470.11 1210.53 1485.41 1212.91 1493.18 1214.11 1500.81 1216.31 1510.72 1218.55 1504.08 1206.96 1493.83 1202.66 1485.99 1196.06 1449.72 1165.45 1414.89 1133.03 1374.66 1107.34 1353.21 1093.65 1330.27 1084.37 1305.27 1078.77 1285.81 1074.4 1270.93 1085.09 1254.11 1089.32 1249.95 1090.39 1251.26 1094.76 1251.77 1098.23 1252.87 1105.52 1255.69 1112.43 1254.35 1120.2 1249.4 1148.98 1221.76 1167.14 1191.6 1161.81 1141.61 1152.97 1128.78 1104.66 1137.55 1071.96 1147.63 1034.27 1176.34 1016.63 1210.1 1005.39 1256.14 990.049 1300.5 998.164 1343.47 1017.94 1378.65 1034.13 1408.29 1058.58 1438.27 1082.41 1460.93 1100.39 1480.39 1122.16 1505.63 1141.25 1503.8 1130.41 1498.27 1124.36 1493.76 1118.28 1478.84 1098.06 1466.36 1076.05 1448.52 1057.89 1433.59 1042.73 1416.16 1034.89 1395.19 1033.89 1384.39 1033.38 1381.5 1029.52 1383.67 1019.11 1386.66 1004.59 1401.55 993.522 1416.75 994.863 1421.28 995.276 1425.86 996.273 1430.12 997.786 1438.37 1000.67 1445.66 1001.12 1451.47 993.075 1452.71 991.356 1455.01 990.118 1457.04 989.224 1466.57 985.201 1474.13 989.533 1475.2 999.987 1475.88 1006.8 1475.37 1013.74 1475.78 1020.58 1476.02 1024.85 1474.89 1029.94 1483.55 1033.93 1476.16 1012.26 1484.45 994.313 1489.95 976.054 1495.28 958.345 1503.74 942.184 1518.07 929.667 1526.77 922.068 1536.5 917.666 1547.92 919.833 1554.18 921.002 1558.99 919.97 1563.94 916.463 1578.14 906.388 1594.34 907.557 1610.36 909.035 1619.4 909.861 1627.07 914.778 1631.37 922.48 1636.7 932.005 1641.99 930.183 1649.01 925.059 1673.38 907.247 1700.24 895.556 1730.25 890.364 1759.82 885.24 1788.53 887.475 1816.49 897.31 1830.96 902.399 1845.4 907.694 1858.88 915.775 1902.38 941.805 1921.42 981.693 1922.32 1030.14 1923.32 1082.82 1879.92 1117.11 1836.5 1115.87 1809.68 1115.11 1789.7 1106.31 1776.88 1083.24 1763.67 1059.51 1773.2 1018.66 1812.36 1018.59 1839.73 1018.56 1854.79 1042.97 1842.89 1067.69 1836.29 1081.45 1837.91 1083.99 1853.41 1084.1 1875.25 1084.23 1895.77 1062.67 1898.53 1038.19 1902.1 1006.38 1889.72 980.559 1867.79 959.583 1828.07 921.621 1779.9 913.849 1727.61 924.303 1726.2 924.578 1725.06 926.229 1724 928.532 1742.67 924.44 1761.4 924.991 1780.07 925.782 1808.23 926.951 1832.27 937.61 1851.08 959.102 1860.7 970.105 1864.28 982.966 1862.53 997.27 1862.04 1001.16 1861.15 1005.35 1858.06 1008.24 1853.93 1012.09 1849.36 1012.71 1847.47 1006.42 1835.12 965.395 1800.6 958.723 1765.46 954.081 1752.05 952.293 1737.99 952.053 1723.07 958.758 1731.22 960.89 1738.57 961.337 1744.07 966.116 1746.62 968.317 1749.89 970.518 1748.1 974.575 1746.76 977.601 1743.46 977.636 1740.67 977.636 1723.17 977.567 1706.87 982.553 1690.68 988.64 1682.87 991.562 1676.51 995.792 1671.35 1002.22 1639.76 1041.9 1635.42 1085.57 1654.27 1131.48 1679.4 1192.69 1726.92 1225.97 1790.6 1239.9 1815.66 1245.4 1840.55 1246.33 1865.65 1245.47 1892.61 1244.54 1918.98 1238.39 1944.56 1230.44 1980.63 1219.3 2016.05 1206.17 2051.77 1193.89 2073.3 1186.5 2095.61 1186.19 2117.99 1186.77 2121.33 1186.88 2124.87 1187.84 2128 1185.57 2130.03 1181.24 2126.14 1178.14 2125.63 1174.33 2123.81 1160.78 2124.77 1148.26 2134.88 1137.46 2143.78 1127.97 2150.66 1117.28 2156.95 1105.48 2166.06 1088.43 2181.4 1074.88 2197.49 1064.12 2210.07 1055.69 2209.83 1046.13 2206.5 1034.68 2199.38 1009.92 2191.75 985.304 2184.42 960.58 2180.54 947.41 2176.82 934.171 2173.08 920.933 2169.36 907.9 2167.23 904.84 2154.2 905.906 2114.18 909.207 2074.09 908.107 2034.03 908.382 2026.71 908.416 2022.2 911.408 2019.76 918.216 2006.83 954.288 1993.25 990.118 1981.08 1026.43 1973.1 1050.26 1963.1 1073.5 1958.49 1098.43 1956.05 1111.6 1956.98 1123.74 1968.39 1132.65 1973.48 1136.64 1980.25 1136.6 1986.2 1138.46 1989.5 1139.49 1993.63 1140.08 1993.29 1144.44 1992.94 1148.64 1988.88 1149.29 1985.38 1149.36 1969.9 1149.53 1954.43 1149.64 1938.96 1149.64 1915.48 1149.64 1891.96 1149.64 1868.47 1149.53 1864.49 1149.53 1860.46 1149.29 1856.51 1148.88 1854.03 1148.64 1852.07 1146.99 1851.9 1144.55 1851.73 1142.1 1853.41 1140.32 1855.92 1139.77 1862.08 1138.43 1868.2 1136.88 1874.42 1135.95 1894.85 1132.96 1908.6 1120.55 1918.61 1103.73 1933.01 1079.49 1942.02 1052.8 1951.37 1026.4 1966.29 984.307 1980.84 942.115 1997 900.473 2002.78 885.55 2007.55 870.214 2013.06 855.186 2015.39 848.756 2014.09 844.561 2007.93 840.951 1999.44 835.964 1990.43 832.56 1981.01 830.016 1967.42 826.354 1954.22 820.757 1940.21 819.203L1926.21 819.218 1926.38 819.081 1926.03 819.047 1925.28 819.072 1909.22 815.229C1893.79 813.968 1882.06 821.015 1873.8 837.443 1886.59 828.262 1898.88 821.595 1912.25 819.518L1925.28 819.072 1925.89 819.219 1926.21 819.218 1914.47 828.675C1909.91 830.798 1904.92 832.148 1899.94 833.626 1887.76 837.237 1887.25 840.676 1896.74 849.479 1900.07 852.573 1903.85 855.324 1906.64 858.866 1914.07 868.356 1911.14 880.735 1900.55 886.203 1891.44 890.914 1874.42 888.094 1867.13 880.46 1854.48 867.188 1849.39 850.82 1851.25 833.111 1853.04 816.158 1864.28 805.464 1880.03 799.962 1889.76 796.558 1899.9 794.564 1913.55 795.217 1892.41 779.812 1878.69 761.622 1867.48 741.506 1843.51 698.626 1852.73 635.837 1898.39 607.95 1918.64 595.605 1940.34 595.433 1961.31 601.898 1989.37 610.563 2003.81 644.09 1994.04 672.011 1985.27 697.01 1955.64 702.546 1936.86 692.574 1923.59 685.491 1921.15 672.321 1923.28 658.222 1924 653.477 1927.99 648.181 1921.49 644.468 1916.2 641.442 1910.9 641.132 1905.13 643.849 1887.52 652.033 1880.75 667.438 1878.24 685.009 1874.83 708.976 1882.67 730.433 1896.26 749.621 1912.21 772.178 1935.35 785.589 1961.21 798.656 1960.35 791.572 1956.01 789.302 1953.4 786.105 1944.81 775.685 1939.48 763.891 1937.31 750.549 1936.24 744.016 1937.03 737.826 1940.54 732.359 1943.53 727.682 1946.8 721.355 1953.85 725.551 1959.14 728.714 1965.64 733.597 1961.45 740.68 1952.68 755.432 1960.21 766.126 1969.15 776.133 1985.14 794.014 2002.67 810.278 2022.61 823.964 2029.25 819.459 2029.56 812.685 2031.49 807.046 2048.4 757.77 2065.11 708.426 2084.26 660.01 2093.1 637.659 2103.59 615.996 2113.46 594.058 2114.62 591.479 2116.52 589.244 2117.93 586.734 2120.99 581.197 2125.35 578.206 2131.92 578.928ZM2122.24 544.473C2119.34 544.49 2116.43 544.954 2113.52 545.848 2119.3 547.636 2125.11 547.568 2130.92 545.779 2128.03 544.885 2125.14 544.456 2122.24 544.473ZM2292.63 524.073C2291.12 523.97 2289.95 524.202 2288.81 525.079 2291.15 526.592 2293.66 526.558 2298.4 525.079 2295.96 524.615 2294.13 524.176 2292.63 524.073ZM2198.58 523.605C2191.12 523.531 2183.53 523.824 2175.72 525.526 2178.06 531.784 2184.08 537.836 2176.24 544.198L2244.42 544.198C2237.03 539.865 2226.85 540.312 2226.99 528.105 2227.02 524.529 2223.59 523.772 2220.7 523.875 2213.39 524.116 2206.05 523.678 2198.58 523.605ZM2268.8 521.778C2266.22 520.368 2263.68 520.437 2261.37 522.225 2263.99 522.466 2266.6 524.185 2268.8 521.778ZM2271.93 501.55C2268.51 501.487 2265.69 504.252 2263.47 509.846 2270.69 507.92 2276.81 513.56 2283.96 510.224 2279.36 504.504 2275.34 501.613 2271.93 501.55ZM2131.92 497.983C2127.42 498.326 2124.56 501.525 2124.6 505.857 2124.61 507.8 2125.6 508.591 2127.03 508.965L2132.1 509.568 2132.09 509.571 2132.13 509.571 2132.1 509.568 2136.02 508.109C2137.21 507.379 2137.99 506.132 2137.39 503.553 2136.73 500.802 2135.36 497.708 2131.92 497.983ZM2204.23 494.166C2195.91 492.343 2192.81 499.324 2188.1 507.404 2197.01 509.571 2204.5 513.319 2209.32 505.273 2211.35 501.903 2209.14 495.266 2204.23 494.166ZM2073.36 462.53C2067.59 462.84 2062.57 470.749 2064.7 477.351 2068.76 489.868 2079.28 495.266 2090.83 499.771 2100.77 503.656 2105.82 497.639 2111.08 491.587 2113.8 488.458 2120.06 484.572 2115.42 480.48 2109.74 475.494 2102.07 464.284 2097.26 467.826 2087.22 475.219 2082.85 472.812 2077.39 464.319 2076.63 463.15 2074.43 462.943 2073.4 462.53ZM2322.39 460.3C2320.66 461.327 2319.24 463.27 2317.86 465.281 2314.84 469.683 2313.15 475.46 2305.01 472.846 2297.48 470.439 2289.71 475.563 2288.74 481.718 2287.81 487.633 2297.44 499.771 2303.6 500.459 2314.08 501.593 2336.19 483.403 2337.33 472.193L2337.33 472.159C2336.88 467.001 2333.03 463.493 2328.76 460.811 2326.15 459.161 2324.11 459.272 2322.39 460.3ZM2168.63 435.799C2165.65 436.242 2163.04 438.89 2160.49 443.928 2157.19 450.427 2156.3 458.163 2152.89 464.559 2147.36 474.91 2150.31 483.85 2155.64 492.619 2158.12 496.711 2162.07 498.602 2167.4 497.054 2173.76 495.215 2179.59 490.908 2183.83 485.281L2190.71 465.606 2190.72 465.625 2190.72 465.591 2190.71 465.606 2187.28 452.554C2185.4 448.355 2182.72 444.392 2178.99 440.902 2174.97 437.119 2171.62 435.357 2168.63 435.799ZM2231.14 434.463C2228.5 433.99 2225.85 434.471 2223.28 436.947 2217.05 442.896 2212.89 449.911 2210.69 458.645 2208.8 466.141 2212.89 470.199 2215.99 475.529 2230.46 500.527 2238.68 501.731 2257.11 481.099 2257.87 480.239 2258.69 479.449 2259.28 478.486 2262.27 473.637 2262.03 470.783 2255.6 468.582 2240.78 463.562 2240.92 463.15 2243.01 447.057L2242.98 447.057C2245.04 442.793 2242.98 439.801 2238.96 437.704 2236.41 436.363 2233.78 434.936 2231.14 434.463ZM2184.73 418.585C2183.53 418.585 2183.19 420.063 2184.08 421.061 2185.11 422.196 2186.28 423.33 2187.66 424.018 2188.72 424.534 2189.44 423.605 2189.34 422.299 2188.48 420.236 2187.1 418.516 2184.73 418.585ZM2198.71 373.036C2201.8 372.722 2204.98 374.451 2208.8 378.319 2214.54 384.13 2219.6 390.388 2216.78 399.569 2215.71 403.077 2216.57 406.344 2218.74 409.301 2237.24 404.315 2238.85 405.037 2246.28 423.227 2248.48 428.591 2250.51 433.921 2255.87 437.016 2260.55 439.698 2264.64 440.902 2269.97 437.016 2284.1 426.735 2291.15 429.107 2297.06 445.234 2298.2 448.295 2296.86 452.111 2300.16 455.378 2314.39 451.664 2323.09 429.279 2343.41 444.168 2344.2 430.345 2351.11 424.052 2362.53 422.23 2370.92 420.889 2374.46 423.674 2374.01 432.167 2373.81 436.122 2374.01 441.658 2371.67 443.721 2356.06 457.373 2359.43 478.658 2350.32 494.819 2347.85 499.255 2346.99 504.551 2345.03 509.33 2339.77 522.087 2331.82 530.718 2316.35 527.417 2314.22 526.97 2311.92 527.348 2307.89 527.348L2307.96 527.417C2310.54 528.724 2311.33 529.446 2312.19 529.515 2334.23 531.578 2339.32 537.114 2339.18 559.087 2339.11 566.961 2334.58 571.328 2323.78 571.019 2311.81 570.71 2299.81 569.334 2287.99 567.409 2279.46 565.999 2270.97 565.139 2262.37 565.105 2210.83 565.036 2159.29 565.105 2107.71 564.967 2098.98 564.967 2090.76 566.858 2082.44 569.197 2068.21 573.22 2061.5 567.512 2062.84 553.207 2064.29 537.733 2062.02 524.185 2056.96 510.637 2052.36 498.326 2048.37 485.776 2044.55 473.19 2041.73 463.872 2039.63 454.347 2032.17 447.194 2030.66 445.75 2029.49 443.171 2029.53 441.108 2029.63 435.056 2023.89 427.388 2030.01 423.365 2036.99 418.791 2043.93 424.5 2049.95 428.798 2054.94 432.374 2056.07 438.219 2058.41 445.2 2069.62 436.672 2078.63 439.836 2087.91 449.085 2096.44 457.545 2099.77 456.135 2105.75 446.059 2108.06 442.14 2110.84 438.494 2113.46 434.781 2117.79 428.66 2122.91 426.219 2129.03 432.271 2134.46 437.635 2138.69 435.537 2143.89 431.583 2150.42 426.666 2155.44 420.476 2160.49 414.321 2166.23 407.375 2175.17 406.206 2181.67 401.805 2186.86 398.297 2183.77 386.743 2189.17 380.004 2192.62 375.705 2195.62 373.35 2198.71 373.036Z" fill="url(#fill1)" fill-rule="evenodd"/><path d="M2679.72 1771.26C2700.94 1729.62 2720.68 1690.83 2740.5 1652.11 2750.92 1631.73 2761.48 1611.42 2772.04 1591.12 2773.62 1588.09 2775.2 1584.92 2777.44 1582.37 2781.98 1577.21 2787.14 1578 2789.06 1584.54 2790.96 1591.08 2791.92 1598 2792.47 1604.81 2797.22 1665.32 2804.51 1725.55 2812.73 1785.68 2814.72 1800.34 2819.06 1811.29 2835.95 1812.15 2838.94 1812.29 2841.97 1813.42 2842 1816.9 2842.03 1820.27 2839.14 1821.99 2836.22 1821.99 2813.93 1821.99 2791.64 1823.71 2769.35 1821.68 2766.91 1821.48 2764.75 1820.72 2764.13 1818.14 2763.54 1815.63 2764.88 1813.6 2767.19 1812.7 2778.06 1808.43 2778.61 1799.35 2777.68 1789.85 2773.31 1746.24 2768.8 1702.67 2763.95 1654.93 2739.53 1702.94 2716.97 1747.27 2694.44 1791.6 2690.28 1799.76 2686.67 1808.26 2682.02 1816.14 2676.76 1825.09 2673.11 1825.23 2666.89 1816.87 2656.53 1803.03 2649.14 1787.51 2641.47 1772.09 2623.17 1735.23 2604.46 1698.57 2584.65 1659.26 2578.39 1684.05 2579.76 1706.86 2576.42 1729.1 2574.15 1744.38 2573.78 1759.9 2571.95 1775.25 2568.75 1802.44 2568.58 1802.41 2590.05 1818.14 2579 1823.99 2567.48 1820.62 2556.85 1822.23 2546.84 1823.78 2536.35 1822.03 2526.03 1821.79 2523.01 1821.72 2520.05 1821.27 2519.19 1818 2518.23 1814.32 2521.11 1812.67 2524 1812.43 2540.65 1811.01 2543.16 1799.31 2544.71 1785.82 2549.63 1742.63 2555.2 1699.5 2560.19 1656.27 2562.29 1638.1 2563.29 1619.79 2565.28 1601.61 2566.17 1593.53 2563.8 1581.93 2573.98 1579.69 2583.51 1577.59 2585.78 1588.81 2589.56 1595.49 2617.18 1644.43 2640.71 1695.47 2666.34 1745.41 2670.22 1753.02 2674.21 1760.56 2679.79 1771.33Z" fill-rule="evenodd"/><path d="M782.425 1713.4C806.445 1736.4 822.826 1762.88 842.51 1786.67 853.798 1800.3 867.047 1808.58 884.185 1811.39 888.005 1812.01 893.201 1811.29 892.994 1816.99 892.857 1821.01 888.658 1821.93 885.182 1822.21 851.802 1824.99 821.037 1821.8 800.217 1790.17 786.383 1769.16 771.035 1749.14 756.134 1728.85 750.421 1721.06 721.136 1716.11 713.29 1721.12 710.571 1722.88 709.917 1725.69 709.951 1728.58 710.02 1749.73 709.47 1770.95 710.605 1792.03 711.19 1802.95 716.765 1811.77 729.946 1812.05 732.939 1812.11 736.071 1813.49 736.14 1816.75 736.243 1821.59 732.217 1821.28 728.707 1821.35 708.128 1821.66 687.514 1822.11 666.935 1822.35 663.528 1822.38 660.087 1821.93 656.749 1821.25 654.512 1820.77 652.688 1819.26 652.688 1816.51 652.688 1814.55 653.824 1813.01 655.51 1812.7 675.814 1808.85 674.953 1793.5 674.885 1778.19 674.712 1726.69 674.678 1675.18 674.816 1623.71 674.85 1608.47 673.921 1594.43 654.168 1592.3 651.862 1592.06 649.901 1590.06 650.004 1587.56 650.142 1585.16 651.897 1583.37 654.375 1583.03 657.747 1582.55 661.188 1582.17 664.629 1582.17 692.745 1582.13 720.861 1581.69 748.942 1582.41 764.393 1582.79 780.051 1584.71 793.609 1593.05 823.927 1611.73 832.668 1651.08 814.946 1683.66 807.753 1696.88 796.053 1704.64 782.391 1713.47ZM735.211 1702.62C769.83 1702.89 779.328 1695.92 786.245 1665.09 794.573 1627.97 772.824 1600.57 734.66 1600.16 731.219 1600.13 727.812 1600.09 724.37 1600.19 710.296 1600.61 709.676 1600.95 709.538 1614.58 709.298 1635.66 709.332 1656.75 709.538 1677.83 709.711 1701.42 705.203 1701.69 733.525 1702.62 734.109 1702.62 734.66 1702.62 735.245 1702.62Z" fill-rule="evenodd"/><path d="M3221.45 1714.45C3241.27 1739.68 3261.18 1765.32 3281.48 1790.66 3291.09 1802.69 3303.33 1810.77 3319.32 1812 3322.69 1812.28 3327.03 1812.24 3327 1816.82 3326.97 1822.18 3322.11 1822.45 3318.14 1822.66 3302.05 1823.42 3285.93 1823.21 3270.31 1818.91 3260.18 1816.13 3252.15 1809.63 3245.3 1801.52 3226.38 1779.18 3211.01 1754.32 3193.4 1731.05 3186.06 1721.36 3162.25 1715.38 3151.47 1720.81 3147.71 1722.7 3147.19 1726 3147.16 1729.4 3147.06 1750.58 3146.5 1771.75 3147.3 1792.93 3147.71 1803.48 3153.26 1811.35 3165.35 1812.18 3168.87 1812.42 3172.73 1813.34 3171.93 1817.95 3171.42 1821.04 3168.11 1822.25 3165.22 1822.25 3142.85 1822.42 3120.49 1822.52 3098.12 1822.45 3094.64 1822.45 3090.47 1821.46 3089.82 1817.68 3089.03 1813.28 3093.13 1812.45 3096.61 1811.8 3110.98 1809.08 3111.67 1798.22 3111.7 1786.81 3111.7 1739.89 3111.8 1692.93 3111.87 1646.01 3111.87 1636.28 3112.25 1626.55 3111.98 1616.83 3111.53 1600.6 3109.39 1598.02 3093.16 1593.24 3089.75 1592.25 3085.61 1591.73 3086.03 1587.47 3086.51 1582.28 3091.3 1582.14 3095.33 1582.14 3116.56 1582.04 3137.79 1581.9 3159.01 1582.11 3173.31 1582.24 3187.65 1581.21 3201.91 1584.03 3229.79 1589.57 3252.09 1602.56 3258.94 1631.74 3266.08 1661.92 3254.57 1686.61 3231.1 1706.16 3228.07 1708.67 3223.76 1709.57 3221.45 1714.41ZM3146.99 1650.07C3146.99 1650.07 3146.85 1650.07 3146.78 1650.07 3146.78 1656.36 3146.78 1662.61 3146.78 1668.9 3146.68 1702.42 3148.85 1704.48 3182.86 1701.97 3187.37 1701.63 3191.92 1700.63 3196.26 1699.29 3209.94 1695.13 3218.73 1686.06 3222.14 1672.13 3231.96 1631.74 3213.39 1599.43 3167.7 1600.29 3164.25 1600.36 3160.8 1600.57 3157.39 1600.43 3150.19 1600.15 3146.92 1603.45 3147.02 1610.64 3147.16 1623.77 3147.06 1636.9 3147.06 1650.03Z" fill-rule="evenodd"/><path d="M1827.4 1712.45C1852.71 1732.5 1866.67 1757.24 1884.48 1778.73 1897.82 1794.84 1911.44 1810.02 1934.31 1811.67 1936.51 1811.84 1938.81 1813 1938.99 1815.81 1939.23 1819.48 1936.44 1820.51 1933.69 1821.37 1907.18 1829.56 1870.97 1817.94 1852.84 1796.25 1835.58 1775.58 1822.79 1751.79 1805.7 1731.03 1797.38 1720.88 1776.12 1715.74 1763.95 1720.33 1760 1721.84 1758.9 1724.79 1758.9 1728.28 1758.9 1750.56 1758.48 1772.84 1759.31 1795.08 1759.69 1804.64 1766.36 1810.3 1776.26 1811.39 1779.7 1811.77 1784.03 1812.08 1784.07 1816.33 1784.14 1820.61 1780.04 1821.06 1776.43 1821.13 1754.73 1821.4 1733.04 1821.71 1711.34 1821.91 1709.65 1821.91 1707.93 1821.54 1706.28 1821.09 1703.98 1820.48 1702.02 1819.14 1701.74 1816.64 1701.47 1813.96 1703.46 1812.28 1705.77 1811.87 1722.27 1808.86 1723.68 1796.83 1723.65 1783.39 1723.54 1729.72 1723.54 1676.02 1723.79 1622.35 1723.85 1607.51 1722.38 1594.45 1703.56 1592.6 1701.26 1592.36 1699.23 1590.89 1699.03 1588.21 1698.72 1584.65 1701.26 1583.14 1704.18 1582.63 1706.97 1582.15 1709.89 1582.11 1712.75 1582.11 1741.39 1582.08 1770.04 1581.87 1798.68 1582.11 1815.57 1582.29 1831.21 1586.88 1845.86 1595.75 1875.88 1613.99 1877.05 1657.48 1863.16 1681.33 1855.22 1694.97 1844.83 1705.9 1827.36 1712.42ZM1780.04 1600.45C1778.32 1600.45 1776.61 1600.45 1774.89 1600.45 1758.79 1600.83 1758.65 1600.83 1758.52 1616.66 1758.35 1633.76 1758.48 1650.83 1758.45 1667.93 1758.45 1703.71 1761.54 1706.45 1797.48 1702.07 1799.75 1701.79 1801.98 1701.35 1804.22 1700.9 1812.88 1699.15 1821.07 1695.86 1825.61 1688.01 1834.34 1672.87 1839.12 1656.35 1834.69 1639.01 1827.64 1611.49 1811.17 1600.42 1780.01 1600.48Z" fill-rule="evenodd"/><path d="M1209.73 1819.3C1184.86 1824.53 1159.86 1823.19 1134.78 1821.33 1132.37 1821.16 1130.07 1820.36 1129.76 1817.68 1129.42 1815.06 1131.24 1813.41 1133.68 1812.96 1150.78 1809.8 1152.56 1797.13 1152.56 1783.05 1152.53 1729.15 1152.56 1675.25 1152.7 1621.34 1152.74 1607.26 1151.7 1594.39 1133.68 1592.26 1130.76 1591.91 1128.25 1589.92 1129.21 1586.34 1130.1 1583.03 1133.2 1582.34 1136.05 1582.28 1149.81 1582.07 1163.57 1582 1177.3 1582 1186.45 1582 1195.63 1582.07 1204.78 1582.45 1207.67 1582.58 1210.39 1584.13 1210.35 1587.68 1210.35 1590.36 1208.19 1591.91 1205.98 1592.29 1189.65 1594.94 1187.1 1606.51 1187.24 1620.28 1187.44 1638.62 1187.48 1656.97 1187.24 1675.31 1187.1 1683.64 1189.37 1687.84 1198.9 1687.74 1234.98 1687.36 1271.1 1687.47 1307.21 1687.88 1316.54 1687.98 1320.77 1685.37 1320.42 1675.31 1319.8 1657.55 1320.42 1639.76 1320.15 1622 1319.91 1608.02 1317.16 1595.39 1300.03 1592.84 1296.93 1592.39 1294.38 1590.43 1294.73 1587.2 1295.07 1584.03 1298.03 1582.41 1300.99 1582.41 1323.9 1582.31 1346.81 1582.31 1369.71 1582.48 1372.6 1582.48 1375.56 1584.13 1375.8 1587.4 1376.08 1590.81 1373.36 1592.29 1370.33 1592.81 1355.82 1595.32 1353.1 1605.37 1353.17 1618.14 1353.44 1671.46 1353.51 1724.81 1353.24 1778.13 1353.14 1795.79 1356.47 1810.18 1376.94 1813.82 1378.66 1814.13 1379.21 1816.16 1378.93 1819.98 1359.71 1821.22 1340.27 1823.77 1320.56 1822.77 1314.27 1822.46 1308.01 1821.81 1301.75 1821.5 1299.34 1821.4 1297.03 1821.16 1296.28 1818.57 1295.49 1815.92 1297.21 1813.72 1299.44 1813.31 1320.01 1809.21 1319.63 1793.52 1320.49 1777.48 1321.63 1755.69 1316.23 1734.04 1319.67 1712.28 1320.91 1704.5 1315.95 1703.85 1310.31 1703.85 1288.54 1703.85 1266.76 1703.85 1244.99 1703.85 1230.1 1703.85 1215.17 1704.12 1200.31 1703.57 1190.54 1703.23 1187.2 1707.29 1187.37 1716.76 1187.79 1739.68 1187.58 1762.64 1187.58 1785.56 1187.58 1799.5 1191.54 1810.52 1207.26 1813.27 1208.94 1813.58 1210.18 1814.96 1209.91 1819.3Z" fill-rule="evenodd"/><path d="M3442.71 1577.08C3490.89 1577.63 3527.19 1588.26 3553.58 1620.03 3586.49 1659.64 3588.78 1704.87 3570.87 1751.3 3553.72 1795.81 3518.41 1817.06 3472.84 1824.48 3451.97 1827.86 3432.07 1825.13 3411.82 1820.99 3346.87 1807.71 3313.14 1742.19 3324.01 1680.23 3335.54 1614.51 3392.47 1575.01 3442.71 1577.08ZM3448.4 1808.64C3486.8 1807.54 3516.59 1792.6 3531.41 1758.34 3548.36 1719.15 3547.74 1680.27 3528.67 1642.04 3514.42 1613.51 3490.95 1598.09 3459.35 1596.02 3425.07 1593.78 3395.56 1604.06 3376.96 1634.66 3351.95 1675.82 3352.67 1718.01 3374.53 1760.79 3390.62 1792.32 3417.04 1805.64 3448.4 1808.64Z" fill-rule="evenodd"/><path d="M2876.78 1814.95C2897.76 1810.26 2898.73 1794.87 2898.62 1777.89 2898.31 1725.16 2898.8 1672.44 2898.8 1619.67 2898.8 1600.04 2897.93 1599.05 2878.4 1592.26 2875.43 1591.23 2872.74 1589.85 2873.02 1586.65 2873.26 1583.48 2876.12 1582.1 2879.19 1581.72 2880.32 1581.58 2881.46 1581.48 2882.63 1581.48 2914.13 1582 2945.73 1579.24 2977.12 1583.07 3017.3 1587.96 3038.19 1623.6 3023.85 1661.28 3019.72 1672.09 3010.93 1678.5 3001.76 1686.87 3008.93 1690.83 3015.79 1694.27 3022.3 1698.27 3046.04 1712.73 3055.8 1737.39 3052.31 1764.22 3048.49 1793.73 3020.37 1816.77 2998.28 1819.56 2961.17 1824.25 2923.95 1823.45 2886.73 1821.25 2883.39 1821.04 2879.67 1821.66 2876.78 1814.88ZM2933.39 1748.79C2933.39 1761.94 2933.43 1775.07 2933.39 1788.22 2933.39 1796.04 2936.81 1801.21 2944.35 1803.69 2978.92 1815.12 3013.58 1792.77 3015.06 1756.71 3015.79 1739.39 3011.55 1721.69 2996.15 1711.15 2981.33 1700.99 2964.03 1696.92 2945.56 1698.47 2936.94 1699.2 2933.22 1702.57 2933.36 1711.11 2933.6 1723.68 2933.43 1736.25 2933.39 1748.82ZM2933.39 1641.72 2933.5 1641.72C2933.5 1652.6 2933.43 1663.52 2933.53 1674.4 2933.57 1678.46 2934.15 1682.11 2939.22 1683.7 2956.52 1689.07 2980.53 1680.01 2988.74 1664.41 2997.21 1648.29 2996.39 1632.14 2986.77 1616.99 2977.05 1601.7 2961.72 1598.25 2944.7 1599.15 2936.94 1599.56 2933.15 1602.77 2933.32 1610.76 2933.53 1621.09 2933.39 1631.38 2933.39 1641.72Z" fill-rule="evenodd"/><path d="M3676.14 1682.96C3698.82 1662.2 3720.19 1640.09 3740.9 1617.33 3744.37 1613.51 3747.71 1609.59 3751.04 1605.67 3754.99 1601.03 3760.93 1597.25 3751.66 1591.06 3747.12 1588.04 3751.14 1583.02 3755.54 1582.88 3774.98 1582.3 3794.43 1582.33 3813.87 1582.43 3816.76 1582.43 3819.34 1584.36 3819.16 1587.9 3819.03 1590.55 3816.9 1592.23 3814.7 1592.4 3793.67 1593.92 3781.79 1609.32 3768.39 1622.49 3748.43 1642.15 3728.74 1662.13 3708.23 1681.21 3700.74 1688.19 3701.7 1692.42 3708.23 1699.09 3739.56 1730.93 3772.48 1761.11 3805.63 1790.99 3817.52 1801.68 3831.46 1809.97 3848.13 1812 3851.01 1812.34 3854.03 1813.2 3854 1816.88 3853.97 1820.45 3850.8 1821.76 3848.13 1821.97 3824.66 1823.62 3801.2 1824.96 3779.86 1812.07 3754.51 1796.73 3736.37 1773.39 3715.38 1753.24 3701.81 1740.24 3688.13 1727.38 3673.81 1713.84 3672.85 1724.56 3671.37 1736.12 3670.85 1747.67 3670.3 1760.25 3670.41 1772.87 3670.75 1785.45 3671.09 1798.42 3675.25 1809.14 3689.78 1812.17 3692.7 1812.79 3695.69 1813.68 3695.66 1817.15 3695.59 1820.94 3692.33 1821.28 3689.41 1821.35 3667.69 1821.86 3645.98 1822.38 3624.27 1822.79 3622 1822.83 3619.7 1822.52 3617.5 1822 3615.13 1821.42 3613.31 1819.73 3613.79 1817.12 3614.07 1815.68 3615.34 1813.44 3616.47 1813.23 3639.73 1809.18 3637.67 1791.26 3637.67 1774.59 3637.74 1723.6 3637.74 1672.61 3637.7 1621.63 3637.7 1600.21 3637.6 1600.24 3617.81 1592.16 3615.1 1591.06 3612.35 1589.76 3613.14 1586.15 3613.89 1582.67 3616.99 1582.09 3619.84 1582.05 3635.3 1581.95 3650.76 1582.02 3666.18 1582.05 3673.05 1582.05 3679.92 1582.12 3686.76 1582.4 3689.65 1582.54 3692.81 1583.46 3693.56 1586.63 3694.42 1590.2 3691.5 1591.82 3688.65 1592.23 3674.43 1594.29 3672.23 1604.02 3672.37 1616.06 3672.68 1637.75 3672.43 1659.48 3672.43 1681.18 3673.64 1681.73 3674.84 1682.31 3676.04 1682.86Z" fill-rule="evenodd"/><path d="M545.496 1817.67C559.425 1804.3 559.631 1804.27 553.426 1786.21 548.185 1771.02 542.324 1756.07 537.084 1740.87 534.98 1734.81 532.05 1730.95 524.913 1731.23 502.538 1732.02 480.162 1730.33 457.787 1732.91 449.168 1733.91 444.375 1737.01 441.583 1745.28 436.274 1761.03 429.999 1776.46 424.379 1792.1 420.069 1804.16 420.793 1805.89 432.515 1812.16 435.515 1813.78 439.859 1814.33 438.549 1818.81 437.308 1823.08 433.24 1821.67 429.826 1821.67 410.381 1821.67 390.936 1821.8 371.492 1821.98 367.665 1822.01 364.286 1821.22 364.01 1816.91 363.803 1813.5 366.837 1812.4 369.837 1811.81 385.903 1808.71 393.177 1797.34 398.694 1783.11 427.068 1709.83 455.96 1636.76 484.644 1563.61 484.851 1563.1 485.024 1562.55 485.196 1561.99 486.885 1556.96 488.781 1551.87 495.298 1552 500.917 1552.14 502.469 1556.83 504.262 1561.17 509.675 1574.43 515.398 1587.59 520.673 1600.96 544.22 1660.74 567.423 1720.61 591.316 1780.25 597.246 1795.03 603.451 1810.71 623.103 1812.71 625.999 1813.02 628.723 1814.88 627.827 1818.53 627.24 1821.04 624.896 1821.8 622.483 1821.91 612.174 1822.25 601.831 1822.7 591.522 1822.87 581.179 1823.04 570.836 1823.04 560.528 1822.87 555.494 1822.77 550.012 1823.63 545.53 1817.67ZM489.954 1619.84C477.887 1650.95 462.579 1680.31 455.408 1714L526.465 1714C515.26 1681.24 499.987 1651.74 489.954 1619.84Z" fill-rule="evenodd"/><path d="M2090.69 1819.46C2092.07 1816.01 2092.21 1815.08 2092.51 1815.01 2114.24 1809.59 2117.61 1793.21 2117.58 1774.18 2117.44 1715.04 2117.78 1655.9 2117.65 1596.77 2117.65 1580.32 2114.2 1565.53 2094.44 1562.01 2092.07 1561.59 2089.93 1560.49 2090 1557.77 2090.1 1553.9 2093.27 1553.35 2096.1 1553.28 2107.56 1553.04 2118.99 1552.97 2130.45 1553.01 2156.79 1553.08 2183.13 1552.8 2209.43 1553.59 2222.69 1554.01 2235.63 1557.73 2246.86 1565.11 2274.26 1583.08 2284 1609.56 2280.22 1641.04 2276.6 1670.97 2253.91 1694.87 2224.68 1702.25 2208.3 1706.39 2191.87 1706.94 2175.31 1703.42 2170.22 1702.35 2163.92 1701.49 2165.05 1694.59 2166.09 1688.25 2171.8 1690.32 2176.31 1690.84 2187.4 1692.11 2198.04 1689.35 2208.37 1686.04 2224.17 1680.97 2234.19 1670.08 2238.94 1653.84 2247.68 1623.84 2240 1596.28 2217.7 1579.59 2200.07 1566.42 2179.86 1568.49 2159.82 1569.56 2155.76 1569.77 2153.93 1572.73 2153.73 1576.56 2153.49 1580.56 2153.42 1584.59 2153.42 1588.59 2153.35 1652.32 2153.28 1716.04 2153.35 1779.77 2153.35 1785.46 2153.45 1791.35 2154.73 1796.84 2157.1 1807.01 2163.82 1812.32 2174.59 1812.25 2178.17 1812.25 2181.89 1813.56 2181.61 1817.94 2181.41 1821.15 2178.21 1822.46 2175.21 1822.49 2147.46 1822.87 2119.64 1824.35 2090.76 1819.49Z" fill-rule="evenodd"/><path d="M1438.31 1672.15C1438.31 1653.8 1438.55 1635.46 1438.24 1617.11 1437.94 1599.55 1436.6 1598.01 1419.33 1592.36 1416.38 1591.4 1413.63 1590.19 1414.04 1586.85 1414.42 1583.65 1417.44 1582.21 1420.39 1582.17 1443.84 1582.03 1467.25 1582 1490.7 1582.07 1493.65 1582.07 1496.74 1583.2 1497.29 1586.44 1497.88 1589.85 1495.17 1591.64 1492.21 1592.02 1475.53 1594.22 1473.47 1605.75 1473.64 1619.62 1473.98 1652.87 1473.98 1686.13 1473.74 1719.38 1473.64 1732.11 1476.63 1744.3 1478.51 1756.73 1485 1799.31 1528.43 1816.41 1565.34 1803.78 1588.31 1795.93 1602.66 1779.82 1608.15 1756.28 1610.48 1746.3 1612.47 1735.94 1612.65 1725.75 1613.23 1689.05 1613.2 1652.36 1612.96 1615.66 1612.85 1600.31 1610.55 1597.83 1595.45 1592.67 1592.15 1591.53 1588.31 1590.98 1588.96 1586.47 1589.44 1583.2 1592.7 1582.17 1595.58 1582.17 1614.43 1582 1633.31 1581.96 1652.16 1582.03 1655.08 1582.03 1658.2 1582.93 1658.86 1586.23 1659.75 1590.74 1656.35 1592.05 1652.85 1592.77 1639.84 1595.39 1637.78 1604.82 1637.85 1616.08 1638.02 1649.91 1637.67 1683.75 1637.95 1717.55 1638.09 1734.9 1635.51 1751.87 1630.91 1768.43 1625.86 1786.67 1615.98 1802.13 1598.88 1811.29 1561.66 1831.18 1523.15 1831.97 1485.07 1814.87 1458.33 1802.85 1446.14 1779 1441.4 1750.98 1439.1 1737.42 1438.11 1723.72 1438.59 1709.91 1439.03 1697.31 1438.69 1684.68 1438.69 1672.08L1438.35 1672.08Z" fill-rule="evenodd"/><path d="M3947.5 1822.8C3928.69 1822.8 3909.85 1822.87 3891.04 1822.73 3886.52 1822.73 3881.96 1822.21 3877.51 1821.39 3875.42 1821.01 3873.3 1819.6 3873.64 1816.68 3873.85 1814.75 3875.08 1813.45 3876.79 1813.1 3895.02 1809.49 3895.29 1795.3 3895.33 1781.23 3895.46 1727.98 3895.39 1674.77 3895.39 1621.51 3895.39 1619.8 3895.46 1618.08 3895.36 1616.36 3894.54 1601.99 3891.21 1597.52 3877.48 1593.05 3874.22 1591.98 3869.77 1591.85 3870.01 1587.65 3870.32 1582.5 3875.25 1582.46 3879.19 1582.26 3883.16 1582.05 3887.17 1582.15 3891.18 1582.15 3919.13 1582.15 3947.09 1582.19 3975.04 1582.22 3984.19 1582.22 3993.27 1581.91 4002.31 1580.3 4018.51 1577.37 4019.57 1578.23 4019.71 1595.28 4019.78 1602.71 4019.44 1610.14 4018.82 1617.56 4018.58 1620.41 4016.97 1623.03 4013.34 1622.79 4010.67 1622.61 4009.2 1620.52 4008.85 1618.32 4006.25 1601.44 3994.33 1600.23 3980.76 1600.72 3967.64 1601.2 3954.52 1601.09 3941.4 1600.78 3933.25 1600.61 3930.23 1604.33 3930.3 1612.16 3930.51 1635.06 3930.54 1657.96 3930.4 1680.85 3930.34 1689 3934.1 1692.06 3941.88 1691.85 3952.16 1691.58 3962.43 1691.61 3972.68 1691.85 3984.08 1692.09 3994.5 1690.79 3999.16 1678.07 3999.98 1675.83 4001.9 1674.25 4004.4 1674.56 4007.17 1674.9 4007.89 1677.31 4007.79 1679.68 4007.34 1692.81 4006.8 1705.98 4006.18 1719.11 4006.01 1722.52 4005.84 1726.57 4001.8 1727.5 3995.97 1728.84 3995.6 1724 3994.88 1720.11 3993.57 1713.24 3988.64 1710.52 3982.58 1710.35 3968.33 1709.9 3954.08 1710 3939.82 1709.97 3933.52 1709.97 3930.44 1713.3 3930.44 1719.56 3930.47 1743.04 3930.51 1766.49 3930.61 1789.97 3930.64 1799.08 3935.95 1803.86 3944.38 1804.37 3958.6 1805.23 3972.92 1805.81 3987.06 1803.96 4003.06 1801.83 4016.87 1796.05 4022.86 1779.07 4023.62 1776.97 4024.99 1774.94 4026.56 1773.36 4028.17 1771.71 4030.64 1770.78 4032.73 1772.33 4033.89 1773.19 4035.26 1775.32 4034.96 1776.46 4031.19 1790.21 4029.37 1804.65 4022.73 1817.43 4019.64 1823.35 4013.17 1822.93 4007.48 1822.97 3987.51 1823.04 3967.54 1822.97 3947.6 1822.97L3947.6 1822.69Z" fill-rule="evenodd"/><path d="M2345.74 1728.44C2344.57 1695.23 2347.19 1662.12 2347.88 1628.94 2348.22 1611.49 2347.71 1594.83 2324.55 1592.25 2322 1591.98 2320.76 1589.61 2321.04 1587.17 2321.31 1584.66 2323.42 1583.15 2325.76 1582.84 2329.72 1582.36 2333.75 1582.22 2337.75 1582.22 2364.73 1582.19 2391.74 1582.12 2418.71 1582.26 2431.94 1582.33 2445.04 1581.78 2458.1 1579.1 2469.57 1576.73 2470.12 1577.49 2470.4 1588.51 2470.64 1597.65 2470.29 1606.82 2470.02 1615.99 2469.91 1618.91 2468.95 1621.86 2465.64 1622.58 2462.13 1623.34 2460.06 1620.8 2459.65 1617.95 2457.51 1601.77 2446.24 1600.19 2433.08 1600.57 2419.89 1600.98 2406.66 1600.91 2393.46 1600.6 2384.92 1600.39 2380.75 1603.49 2380.85 1612.48 2381.09 1635.39 2381.06 1658.27 2380.78 1681.18 2380.68 1689.49 2384.61 1692.27 2392.36 1692.07 2403.24 1691.76 2414.17 1691.79 2425.09 1691.89 2435.98 1691.96 2445.93 1690.79 2449.69 1678.12 2450.34 1675.89 2452.41 1674.31 2454.96 1674.86 2457.54 1675.41 2458.85 1677.78 2458.75 1680.01 2457.99 1694.26 2457.06 1708.52 2455.92 1722.77 2455.68 1725.83 2453.51 1728.06 2450.21 1728.03 2446.48 1728.03 2445.66 1725.07 2445.38 1722.15 2444.52 1712.4 2437.73 1710.17 2429.67 1709.99 2417.06 1709.75 2404.42 1709.99 2391.77 1709.69 2383.5 1709.48 2380.75 1713.39 2380.85 1721.19 2381.13 1742.93 2380.71 1764.71 2381.13 1786.45 2381.37 1799.64 2385.78 1804.17 2398.59 1804.72 2410.03 1805.2 2421.57 1805.17 2433.01 1804.48 2449.96 1803.49 2464.33 1797.54 2472.39 1781.19 2473.63 1778.65 2475.32 1776.21 2477.15 1774.08 2478.63 1772.37 2480.73 1771.06 2483.18 1772.47 2485.38 1773.71 2486.49 1775.84 2485.8 1778.21 2482.01 1790.78 2478.04 1803.31 2474.19 1815.88 2472.29 1822.07 2467.26 1823.03 2461.85 1822.93 2418.82 1822.2 2375.75 1824.13 2332.72 1821.83 2329.34 1821.65 2325.17 1822.72 2324.24 1818.25 2323.28 1813.69 2327.24 1812.66 2330.68 1812.11 2343.33 1810.05 2345.4 1800.46 2345.6 1790.36 2345.98 1769.76 2345.71 1749.15 2345.71 1728.54Z" fill-rule="evenodd"/><path d="M885.24 1624.96C877.214 1609.67 882.496 1596.01 885.549 1582.52 886.818 1576.97 892.58 1577.9 897.176 1578.35 958.059 1584.55 1019.01 1583.07 1079.96 1579.28 1088.43 1578.76 1091.52 1581.55 1091.52 1589.54 1091.52 1599.28 1091.9 1608.99 1092 1618.73 1092 1621.62 1091.86 1624.85 1088.33 1625.54 1084.59 1626.27 1083.39 1623.31 1083.12 1620.38 1081.78 1605.48 1070.91 1601.83 1059.04 1601.03 1044.25 1600.04 1029.37 1600.66 1014.52 1600.52 1008.07 1600.45 1005.12 1603.58 1005.19 1609.95 1005.19 1612.26 1005.08 1614.53 1005.08 1616.83 1004.98 1672.98 1004.84 1729.12 1004.88 1785.3 1004.88 1803.61 1006.46 1805.67 1024.05 1812.45 1026.97 1813.59 1029.75 1814.8 1029.4 1818 1029.06 1821.2 1025.94 1822.4 1022.95 1822.47 999.562 1823.16 976.169 1823.44 952.811 1821.65 950.513 1821.47 948.215 1820.41 947.803 1817.76 947.254 1814.07 949.964 1812.77 952.845 1812.25 966.359 1809.8 969.961 1799.93 969.995 1788.22 970.235 1729.77 970.064 1671.32 970.407 1612.91 970.475 1603.13 966.702 1599.59 957.235 1600.21 948.146 1600.79 938.988 1600.45 929.83 1600.48 910.896 1600.48 892.82 1602.07 885.171 1625.06Z" fill-rule="evenodd"/><path d="M1697.44 2096.37C1680.25 2099.62 1677.54 2099.56 1664.23 2096.13 1671.95 2074.96 1670.54 2010.89 1661 1995.04 1680.56 1994.49 1699.26 1992.4 1717.55 1996.38 1736.35 2000.46 1744.49 2023.27 1732.51 2040.35 1725.96 2049.68 1727.5 2054.83 1732.72 2063.54 1740.81 2077.02 1748.95 2089.47 1766 2094 1748.64 2102.57 1735.22 2100.1 1725.27 2086.73 1719.47 2078.98 1714.46 2070.67 1709.07 2062.61 1705.44 2057.16 1701.11 2052.15 1693.77 2054.83 1687.46 2057.12 1689.24 2063.37 1689.17 2068.2 1689.07 2078.15 1687.32 2088.58 1697.48 2096.33ZM1689.21 2023.92C1689.21 2023.92 1689.45 2023.92 1689.58 2023.92 1689.58 2029.03 1689.38 2034.14 1689.65 2039.22 1689.82 2042.31 1691.64 2044.13 1695.11 2044.43 1705.13 2045.36 1716.04 2037.88 1718.34 2028.18 1720.29 2019.87 1716.18 2013.8 1710.45 2008.76 1706.05 2004.89 1700.22 2002.28 1694.73 2004.2 1687.01 2006.91 1689.89 2014.63 1689.21 2020.53 1689.07 2021.66 1689.21 2022.79 1689.21 2023.92Z" fill="#9D8954" fill-rule="evenodd"/><path d="M3059.19 2052.2C3065.48 2059.71 3071.8 2067.83 3076.34 2077.1 3080.85 2086.27 3089.77 2090.38 3099 2095.5 3074.91 2102.56 3066.71 2099.59 3055.36 2080.6 3050.37 2072.23 3045.83 2063.44 3038.24 2057.11 3031.03 2051.09 3024.98 2053.34 3024.13 2062.68 3023.1 2073.99 3021.49 2085.75 3031.99 2096.26 3020.13 2100 3009.91 2098.79 2998.39 2097.82 3009.7 2080.77 3005.43 2062.75 3005.09 2045.63 3004.78 2029.2 3011.17 2011.42 2996 1994.37 3017.56 1993.75 3036.74 1990.98 3055.39 1995.72 3073.23 2000.25 3079.42 2021.28 3069.47 2037.88 3066.54 2042.79 3060.69 2045.35 3059.09 2052.2ZM3023.65 2022.39C3023.65 2024.67 3023.44 2026.95 3023.68 2029.2 3024.16 2034.04 3021.77 2040.68 3027.78 2042.76 3033.59 2044.76 3040.12 2043.31 3045.55 2039.96 3052.52 2035.67 3055.43 2025.22 3052.46 2017.23 3049.41 2009.03 3036.5 2000.46 3029.49 2003.08 3020.02 2006.65 3024.91 2015.71 3023.61 2022.39Z" fill="#9D8954" fill-rule="evenodd"/><path d="M2346 2047.06C2345.59 2080.9 2321.79 2100.79 2288.01 2101 2254.12 2101.24 2231.56 2078.04 2232.01 2045.1 2232.45 2013.15 2256.45 1989.37 2288.25 1991.09 2327.22 1993.19 2346.27 2013.7 2346 2047.06ZM2252.74 2042.72C2252.37 2054.18 2255.01 2064.85 2261.43 2074.91 2269.47 2087.5 2280.62 2092.15 2294.91 2090.22 2310.01 2088.16 2319.77 2079.31 2323.92 2064.92 2328.14 2050.19 2326.7 2035.56 2319.59 2021.83 2306.86 1997.15 2278.36 1993.84 2260.64 2015.15 2254.15 2022.96 2253.29 2032.77 2252.81 2042.76Z" fill="#9D8954" fill-rule="evenodd"/><path d="M1317.83 1995.26C1326.73 1991.35 1333.05 1993.74 1339.19 1993.53 1347.99 1993.22 1356.69 1991.15 1357.66 2006.16 1358.21 2014.73 1367.22 2022.69 1375.26 2029.92 1386.62 2020.68 1393.9 2009.58 1394.59 1994.02 1403.42 1993.78 1412.33 1992.46 1423.51 1995.89 1407.57 2006.99 1399.04 2021.93 1388.65 2035.35 1385.72 2039.15 1382.68 2042.71 1386.75 2047.42 1400.08 2062.88 1407.6 2083.11 1429 2095.67 1416.37 2100.27 1406.36 2098.4 1396.56 2098.09 1392.86 2097.98 1393.04 2094.73 1392.28 2091.9 1388.58 2078.2 1379.06 2068.41 1368.91 2057 1361.8 2066.72 1354.52 2074.85 1349.31 2084.11 1340.68 2099.44 1341.13 2099.82 1323.66 2098.54 1321.45 2098.36 1319.14 2098.29 1317 2095.01 1333.91 2084.88 1342.13 2066.44 1356.31 2053.37 1361.77 2048.32 1361.32 2044.03 1356.55 2038.77 1343.99 2024.9 1335.02 2007.96 1317.86 1995.33Z" fill="#9D8954" fill-rule="evenodd"/><path d="M2491.43 1994.5 2522 1994.5C2509.15 2014.98 2515.95 2036.08 2514.37 2056.42 2513.48 2067.77 2514.17 2079.23 2514.06 2090.65 2514.06 2093.46 2514.27 2096.75 2511.45 2098.3 2507.67 2100.35 2505.1 2097.47 2502.66 2095.07 2486.03 2078.61 2469.44 2062.08 2452.81 2045.61 2446.87 2039.75 2440.86 2033.98 2433.23 2028.94 2434.4 2051.85 2424.78 2074.97 2439.28 2096.65 2430.72 2099.29 2422.44 2098.78 2412 2096.96 2422.79 2083.62 2420.31 2068.94 2420.38 2054.67 2420.49 2034.36 2420.38 2014.09 2420.38 1993.78 2421.82 1993.2 2423.27 1992.58 2424.68 1992 2449.55 2017.11 2474.45 2042.22 2501.46 2069.52 2503.66 2047.94 2502.45 2029.46 2502.56 2011.04 2502.62 2003.35 2493.97 2002.5 2491.29 1994.57Z" fill="#9D8954" fill-rule="evenodd"/><path d="M3248.11 2020.37C3242.06 2012.16 3233.99 2006.14 3224.02 2003.31 3200.82 1996.67 3180 2009.53 3175.19 2033.5 3173.02 2044.3 3173.95 2055 3177.66 2065.46 3183.5 2081.91 3194.98 2090.35 3212.54 2090.66 3220.65 2090.8 3230.51 2090.66 3234.02 2083.17 3237.97 2074.73 3238.11 2064.33 3232.41 2055.41 3231 2053.22 3227.25 2052.44 3228.8 2047.72 3238.32 2045.19 3248.08 2045.56 3260 2048.47 3252.99 2058.15 3253.33 2068.37 3253.95 2078.42 3254.57 2088.27 3249 2093.33 3240.89 2095.99 3220.69 2102.66 3200.41 2103.28 3180.69 2094.11 3158.42 2083.79 3147.35 2053.19 3155.87 2028.03 3165.94 1998.35 3191.1 1990.49 3218.69 1992.23 3223.81 1992.54 3228.83 1993.94 3233.92 1994.55 3249.86 1996.47 3249.9 1996.43 3250.76 2011.89 3250.89 2014.08 3250.58 2016.3 3250.31 2018.52 3250.27 2018.9 3249.52 2019.17 3248.08 2020.33Z" fill="#9D8954" fill-rule="evenodd"/><path d="M1227.48 1995.99C1236.02 1993.21 1244.22 1993.96 1255 1995.82 1245.43 2005.03 1245.97 2015.49 1246.18 2025.94 1246.39 2037.94 1246.56 2049.97 1246.25 2061.97 1245.67 2084.01 1235.89 2094.29 1214.16 2099.55 1202.32 2102.44 1191.37 2100.66 1180.53 2097.25 1163.03 2091.78 1158.33 2076.86 1157.06 2060.87 1155.99 2047.81 1156.75 2034.57 1156.68 2021.4 1156.61 2012.43 1158.05 2003.04 1147 1995.85 1160.52 1993.62 1171.02 1993.17 1181.35 1995.82 1173.77 2021.06 1176.41 2046.16 1178.54 2070.91 1179.6 2083.26 1191.89 2090.75 1205 2090.62 1218.14 2090.48 1228.99 2082.84 1231.8 2070.88 1236.43 2051.18 1234.58 2031.06 1235.1 2011.08 1235.27 2004.38 1228.06 2002.45 1227.51 1995.99Z" fill="#9D8954" fill-rule="evenodd"/><path d="M1571.23 1995.86C1578.75 1993.25 1585.99 1993.84 1595 1995.72 1588.13 2007.44 1589.62 2019.78 1589.41 2031.91 1589.24 2042.16 1590.38 2052.51 1588.1 2062.66 1584.99 2076.71 1582.3 2091.31 1565.88 2096.59 1546.49 2102.83 1527.23 2103.61 1509.77 2091.24 1499.63 2084.08 1496.45 2072.97 1496.25 2061.08 1496.01 2047.37 1495.97 2033.66 1496.14 2019.95 1496.25 2011.39 1496.28 2002.95 1487 1996.24 1499.42 1992.67 1509.5 1994.35 1519.78 1994.69 1510.81 2019.89 1512.78 2044.84 1517.43 2069.58 1520.16 2083.94 1528.96 2090.18 1542.73 2090.45 1557.29 2090.73 1568.09 2084.11 1572.3 2071.71 1573.92 2066.91 1575.47 2061.66 1575.26 2056.69 1574.4 2036.51 1578.82 2015.94 1571.19 1995.83Z" fill="#9D8954" fill-rule="evenodd"/><path d="M2919.5 2036.26C2921.31 2042.87 2920.37 2049.49 2920.19 2057.97 2911.43 2053.88 2905.09 2048.79 2896.47 2049.87 2889.82 2050.7 2885.23 2052.26 2885.27 2059.84 2885.27 2065.59 2885.27 2071.37 2885.27 2077.12 2885.27 2084.08 2888.5 2087.78 2895.7 2087.95 2907.88 2088.27 2920.4 2089.86 2928.26 2077.22 2928.61 2076.63 2930.35 2076.91 2931.43 2076.77 2933.38 2094.71 2930.87 2098.55 2915.46 2098.83 2897.09 2099.17 2878.69 2098.9 2858.86 2098.9 2867.28 2079.75 2864.64 2061.88 2864.29 2044.43 2863.98 2027.85 2869.58 2010.08 2855 1993.53 2866.97 1993.53 2877.09 1993.53 2887.25 1993.53 2894.76 1993.53 2902.31 1993.84 2909.83 1993.39 2928.82 1992.25 2928.82 1992.15 2924.68 2014.24 2918.21 2001.88 2908.3 2001.36 2897.65 2001.95 2888.88 2002.43 2885.79 2006.62 2885.13 2014.97 2883.25 2038.96 2892.92 2045.78 2915.71 2036.05 2916.61 2035.67 2917.83 2036.12 2919.53 2036.22Z" fill="#9D8954" fill-rule="evenodd"/><path d="M2683.71 2020.93C2660.71 1998.82 2640.81 1995.76 2623.85 2009.71 2608.16 2022.62 2601.98 2055.06 2616.14 2073.9 2625.02 2085.71 2636.25 2092.02 2651.69 2090.54 2666.16 2089.16 2675.94 2079.83 2687.27 2069.29 2689.27 2081.44 2687.44 2090.16 2678.18 2094.63 2655.83 2105.48 2617.73 2102.76 2600.94 2084.2 2575.11 2055.65 2586.71 2007.81 2623.09 1995.07 2641.33 1988.67 2659.36 1990.7 2677.36 1995.14 2686.72 1997.45 2687.68 2002.13 2683.75 2020.9Z" fill="#9D8954" fill-rule="evenodd"/><path d="M2161.19 2024.94C2152.98 2004.89 2138.98 1999.92 2121.52 2001.46 2113.09 2002.22 2106.25 2005.85 2100.54 2011.92 2081.6 2031.96 2086.62 2071.02 2110 2085.58 2122.34 2093.29 2140.32 2091.58 2153.32 2081.27 2156.86 2078.46 2159.99 2075.17 2163.26 2072.15 2168.24 2081.64 2166.35 2090.96 2158.27 2095.69 2142.39 2104.94 2104.22 2101.59 2089.26 2089.63 2069.08 2073.45 2062.76 2048.51 2072.49 2023.43 2080.46 2002.84 2106.11 1988.79 2131.62 1991.29 2139.02 1992.01 2146.27 1993.93 2153.66 1994.41 2163.08 1994.99 2167.38 1998.76 2165.11 2008.52 2164.12 2012.84 2165.42 2017.6 2161.19 2025Z" fill="#9D8954" fill-rule="evenodd"/><path d="M3400 2075.7C3397.98 2098.46 3397.98 2098.81 3379.78 2098.67 3362.58 2098.57 3345.3 2100.05 3328 2097.46 3338.56 2063.26 3336.76 2029.85 3328.73 1995.38 3348.02 1991.9 3368.2 1994.34 3388.15 1993.03 3398.4 1992.34 3393.88 2002.64 3394.09 2011.74 3384.36 2003.12 3374.77 2001.88 3364.52 2002.44 3356.49 2002.88 3353.71 2006.74 3352.98 2014.28 3350.66 2038.7 3359.17 2045.25 3382.83 2036.57 3384.4 2035.98 3385.68 2034.88 3388.53 2036.4 3387.98 2042.84 3390.97 2049.86 3388.29 2056.72 3383.67 2057.89 3382.9 2054.03 3380.58 2052.79 3363.83 2043.87 3352.91 2050.21 3352.91 2068.77 3352.91 2072.22 3353.09 2075.63 3353.09 2079.07 3353.09 2087.06 3357.57 2089.82 3365.15 2090.4 3379.71 2091.54 3384.05 2090.09 3399.97 2075.66Z" fill="#9D8954" fill-rule="evenodd"/><path d="M1867.07 2037.9C1874.13 2023.85 1889.9 2015.42 1887.87 1997.67 1887.56 1994.94 1890.52 1994.04 1892.79 1994.22 1899.33 1994.66 1906.22 1992.52 1914 1996.6 1897.13 2010.83 1888.73 2029.86 1877.23 2046.71 1869.21 2058.45 1872.03 2070.92 1872.2 2083.32 1872.27 2089.29 1878.92 2090.68 1881.81 2096.65 1869.9 2100.21 1858.6 2099.03 1847.55 2097.62 1846.49 2094.23 1848.04 2092.4 1848.76 2090.3 1855.85 2069.89 1854.2 2050.89 1839.26 2034.24 1828.69 2022.47 1824.45 2005.51 1805 1996.74 1819.6 1992.21 1830.68 1994.84 1841.91 1994.11 1843.01 2012.62 1856.33 2023.81 1867.07 2037.97Z" fill="#9D8954" fill-rule="evenodd"/><path d="M1086 2071.46C1086.1 2096.48 1084.24 2098.82 1064.24 2098.65 1046.62 2098.51 1028.93 2100.1 1010.14 2097.48 1018.31 2079.98 1015.07 2062.29 1014.86 2045.04 1014.65 2028.65 1020.38 2011.05 1007 1995.87 1019.52 1992.56 1031.27 1994.63 1047.27 1994.7 1033.38 2004.57 1035.72 2016.09 1035.65 2026.96 1035.52 2043 1035.93 2059.01 1035.55 2075.05 1035.31 2084.61 1039.83 2088.51 1048.76 2088.95 1063.41 2089.71 1076.76 2087.33 1086 2071.46Z" fill="#9D8954" fill-rule="evenodd"/><path d="M2788.9 2097.67C2777.43 2099.36 2766.44 2099.53 2755 2097.67 2764.36 2080.26 2764.53 2011.74 2755.27 1995.42 2766.67 1993.53 2777.63 1993.46 2789 1995.6 2779.61 2012.29 2779.54 2079.84 2788.9 2097.67Z" fill="#9D8954" fill-rule="evenodd"/></g></svg>